<?xml version="1.0" encoding="UTF-8"?>
<svg version="1.1" xmlns="http://www.w3.org/2000/svg" width="800" height="676">
<path d="M0 0 C264 0 528 0 800 0 C800 223.08 800 446.16 800 676 C536 676 272 676 0 676 C0 452.92 0 229.84 0 0 Z " fill="#000000" transform="translate(0,0)"/>
<path d="M0 0 C20.06353192 -0.04686679 40.12705261 -0.08206043 60.19062805 -0.10362434 C69.50796344 -0.1139061 78.82526467 -0.12790664 88.14257812 -0.15087891 C96.27020003 -0.17090826 104.39779718 -0.18373893 112.52544308 -0.18817699 C116.82291163 -0.19076832 121.12030941 -0.19679324 125.41775513 -0.21146011 C129.47574666 -0.22519546 133.53363934 -0.229191 137.59165192 -0.22621536 C139.06848948 -0.22675849 140.54533091 -0.23063979 142.02214813 -0.23841095 C170.89157386 -0.38266891 197.73536806 6.65279717 219.25 26.8125 C223.62272146 31.38194921 226.86231652 36.53212511 230 42 C230.4640625 42.80308594 230.928125 43.60617188 231.40625 44.43359375 C243.4294651 66.75718521 242.29686711 94.13437169 236 118 C235.69964844 119.17433594 235.39929688 120.34867187 235.08984375 121.55859375 C230.01637178 139.50243185 221.24661852 156.93388387 209 171 C208.31292969 171.80824219 207.62585938 172.61648438 206.91796875 173.44921875 C184.38602314 199.31020858 152.46309142 216.80599048 118 220 C114.78934138 220.12877147 111.58397736 220.12696393 108.37109375 220.11352539 C107.44333633 220.11367142 106.51557892 220.11381744 105.55970764 220.1139679 C102.51894727 220.11327593 99.47824956 220.1055173 96.4375 220.09765625 C94.31901076 220.09578952 92.20052108 220.09436682 90.08203125 220.09336853 C84.52543939 220.08956341 78.96887395 220.07975035 73.41229248 220.06866455 C67.73450071 220.05840721 62.05670463 220.05386167 56.37890625 220.04882812 C45.2525926 220.03812619 34.1262985 220.02107398 23 220 C22.92020149 221.03725975 22.92020149 221.03725975 22.83879089 222.09547424 C22.34044131 228.10534705 21.58372702 233.93685804 20.36328125 239.83984375 C20.20353317 240.6355629 20.0437851 241.43128204 19.87919617 242.25111389 C19.3628143 244.81446706 18.83789694 247.37598085 18.3125 249.9375 C17.94692601 251.74146767 17.58169556 253.54550499 17.21679688 255.34960938 C14.9903569 266.32222371 12.67885039 277.27447253 10.30126953 288.21533203 C7.99325585 298.89361664 5.83407536 309.60077173 3.6875 320.3125 C3.42175171 321.63374878 3.42175171 321.63374878 3.15063477 322.98168945 C2.64375402 325.50427777 2.13972961 328.02741874 1.63671875 330.55078125 C1.48595383 331.30063797 1.3351889 332.05049469 1.17985535 332.82307434 C0.51081099 336.19783494 -0.09291132 339.55370525 -0.53979492 342.96557617 C-1 346 -1 346 -2 347 C-4.08619022 347.09417773 -6.17560477 347.11742878 -8.26391602 347.11352539 C-9.2443689 347.11374443 -9.2443689 347.11374443 -10.24462891 347.1139679 C-12.41442128 347.11326883 -14.58412879 347.10547678 -16.75390625 347.09765625 C-18.25463311 347.09579205 -19.75536057 347.09436816 -21.25608826 347.09336853 C-25.21318226 347.08954352 -29.17023978 347.0797134 -33.12731934 347.06866455 C-37.16234849 347.05845006 -41.19738353 347.05387083 -45.23242188 347.04882812 C-53.15496469 347.03809111 -61.07747781 347.0210149 -69 347 C-68.242525 337.96108844 -66.33729178 329.14666965 -64.54785156 320.26928711 C-64.18698266 318.46444884 -63.82645043 316.65954323 -63.46622658 314.85457611 C-62.48473319 309.94172561 -61.49845753 305.02984603 -60.51131201 300.11812854 C-59.46276514 294.89676466 -58.41855728 289.674533 -57.37380981 284.45240784 C-55.36364042 274.40829286 -53.34934853 264.365009 -51.33362567 254.32200724 C-49.71543506 246.25895946 -48.0991589 238.19552997 -46.48419189 230.13183594 C-46.2560451 228.99267632 -46.02789831 227.85351671 -45.79283798 226.67983711 C-45.3322557 224.38007126 -44.87167546 222.08030499 -44.41109729 219.78053832 C-36.59499938 180.75588586 -28.76702296 141.73361164 -20.8828125 102.72265625 C-20.63250778 101.48402266 -20.38220306 100.24538906 -20.12431335 98.96922112 C-17.93765005 88.15041298 -15.74845071 77.33213064 -13.54888916 66.51593685 C-12.62233838 61.95882499 -11.69747175 57.40137274 -10.7734375 52.84375 C-10.60569321 52.01701342 -10.43794891 51.19027683 -10.26512146 50.33848763 C-7.64257612 37.39521107 -5.15513988 24.42943299 -2.79379272 11.43591309 C-2.5700296 10.21505005 -2.34626648 8.99418701 -2.11572266 7.73632812 C-1.92289703 6.67031372 -1.73007141 5.60429932 -1.53140259 4.50598145 C-1 2 -1 2 0 0 Z " fill="#FDFDFD" transform="translate(175,105)"/>
<path d="M0 0 C0.7620987 0.00037972 1.52419741 0.00075944 2.30939001 0.00115067 C3.18571335 -0.00084038 4.06203668 -0.00283143 4.96491528 -0.00488281 C5.93863046 -0.00196997 6.91234564 0.00094287 7.91556734 0.00394398 C8.94139341 0.00308955 9.96721947 0.00223513 11.02413118 0.00135481 C14.48974582 -0.00030307 17.95531293 0.00522641 21.42092317 0.01067311 C23.89394562 0.01095494 26.36696816 0.01079732 28.83999056 0.0102306 C34.17876297 0.01000228 39.51752035 0.0128537 44.85628885 0.01846844 C52.57533511 0.02658123 60.29437546 0.02919843 68.01342552 0.03045643 C80.5358174 0.0326473 93.05820279 0.03930833 105.58059114 0.04875904 C117.74790852 0.05793226 129.91522413 0.06501354 142.08254427 0.06926686 C142.83201743 0.06952958 143.5814906 0.0697923 144.35367507 0.07006299 C148.11340631 0.07136799 151.87313757 0.0726317 155.63286883 0.07387489 C186.84404466 0.08424859 218.05521243 0.10194197 249.26638216 0.1241985 C249.05001651 1.37406859 249.05001651 1.37406859 248.82927984 2.64918858 C248.28770509 5.77927908 247.74663689 8.90945663 247.20589727 12.03969151 C246.97300925 13.38723464 246.73992695 14.73474422 246.50663656 16.08221775 C245.2565577 23.30338846 244.02394401 30.5248776 242.88747591 37.7648235 C239.5052608 57.64780329 239.5052608 57.64780329 233.39138216 62.3741985 C231.75033919 63.27061822 230.10412258 64.160168 228.42263216 64.9782024 C223.50566431 67.59145501 218.99410173 70.93923452 214.39138216 74.0616985 C212.27284425 75.46723593 210.15307647 76.87092158 208.03200716 78.272636 C202.57453064 81.89983985 197.24504374 85.66282657 191.93825716 89.507011 C184.37042029 94.94774206 176.59661749 100.10331851 168.88747591 105.34050709 C165.21417569 107.84023989 161.55119686 110.35477747 157.89138216 112.8741985 C157.2598221 113.30877369 156.62826204 113.74334889 155.9775638 114.19109303 C153.37775401 115.98057684 150.77867579 117.77111992 148.17995638 119.56218678 C146.76049326 120.54039964 145.34073598 121.51818578 143.92067903 122.49553639 C142.546936 123.4419889 141.17449587 124.39033586 139.80349153 125.34075123 C135.58330797 128.25773619 131.30585756 131.03369252 126.86794466 133.61247975 C124.58006235 135.77201744 124.08108603 138.14106563 123.26638216 141.1241985 C123.92944368 141.10325123 124.5925052 141.08230397 125.2756595 141.06072193 C149.9544281 140.38716079 172.21829325 142.94123496 191.26638216 160.1241985 C191.86450716 160.63080006 192.46263216 161.13740162 193.07888216 161.65935475 C204.00948445 171.58961174 211.51048223 187.96108144 212.42751497 202.71697193 C212.63230606 216.20937067 212.3822834 228.96817103 209.26638216 242.1241985 C209.04160188 243.10936451 209.04160188 243.10936451 208.8122806 244.11443287 C206.85845709 252.58514963 204.15505963 260.34684356 200.26638216 268.1241985 C199.76364778 269.21216725 199.26091341 270.300136 198.74294466 271.4210735 C182.6053247 305.51463679 151.28465353 330.13394884 116.32888216 343.0616985 C77.70259334 356.7899684 28.88357516 359.17466878 -9.06491667 341.98821217 C-20.1612748 336.67511945 -30.01071635 329.83138305 -38.73361784 321.1241985 C-39.35623503 320.51318287 -39.97885222 319.90216725 -40.62033659 319.272636 C-55.28914545 303.77973675 -61.10854519 282.96203798 -61.10422331 262.16301686 C-61.10853809 259.85437043 -61.14477272 257.54773506 -61.18283659 255.23943287 C-61.21406698 242.97109672 -59.23779976 233.64510807 -56.73361784 221.1241985 C-34.29361784 221.1241985 -11.85361784 221.1241985 11.26638216 221.1241985 C10.27638216 226.4041985 9.28638216 231.6841985 8.26638216 237.1241985 C7.46207684 253.21030493 10.25306696 267.25435475 21.14138216 279.5616985 C33.36421496 291.26551504 50.56589628 293.61011462 66.76101106 293.4078899 C89.64414477 292.75012963 110.63398198 285.21380175 126.82888216 268.6866985 C138.13106417 255.79824533 143.93333511 238.31354784 143.57106966 221.3273235 C142.664844 211.80033577 138.59249485 204.26520473 131.26638216 198.1241985 C118.40554768 189.82278415 104.78352276 188.67066527 89.90700716 188.61247975 C88.26504641 188.59559675 86.62309829 188.57744177 84.98116487 188.55808216 C80.70042302 188.51096842 76.41973241 188.48091103 72.13881868 188.45464283 C67.75415358 188.42464024 63.3696645 188.37817864 58.98513216 188.33318287 C50.41230279 188.24759037 41.83945667 188.18005149 33.26638216 188.1241985 C34.92856853 177.17158729 36.69267299 166.24934781 38.7131595 155.35686451 C39.08310196 153.32054843 39.43751958 151.28135294 39.77663606 149.23967701 C42.98296988 130.0308785 42.98296988 130.0308785 48.94216341 125.17497975 C50.68728046 124.10801782 52.4629396 123.08930794 54.26638216 122.1241985 C55.93692557 120.97245434 57.59714474 119.80559574 59.24685091 118.6241985 C60.97997897 117.45374851 62.71575526 116.28721223 64.45388216 115.1241985 C66.3881464 113.81789909 68.32171733 112.51057262 70.25466341 111.2023235 C71.73700472 110.19975514 71.73700472 110.19975514 73.24929231 109.17693287 C78.24019401 105.78127811 83.19090694 102.32841111 88.14138216 98.8741985 C95.91058498 93.45743137 103.69241201 88.06071692 111.50466341 82.70622975 C114.11148034 80.91945834 116.71220353 79.12421377 119.30935091 77.32341725 C120.33427644 76.61439259 120.33427644 76.61439259 121.37990755 75.8910442 C122.6420659 75.01769006 123.90314096 74.14276608 125.16262239 73.26555592 C131.76048041 68.70731258 138.50649948 64.46983736 145.26638216 60.1241985 C67.05638216 59.6291985 67.05638216 59.6291985 -12.73361784 59.1241985 C-12.73361784 50.12307396 -12.73361784 50.12307396 -11.83151823 45.64202076 C-11.6345384 44.6448151 -11.43755858 43.64760945 -11.23460966 42.62018543 C-11.01900892 41.57092381 -10.80340819 40.52166218 -10.58127409 39.44060475 C-10.36168532 38.34449375 -10.14209654 37.24838276 -9.91585356 36.11905628 C-9.45291673 33.81640367 -8.98626147 31.51449582 -8.51608855 29.21330982 C-7.79384884 25.67558429 -7.08412283 22.13551612 -6.37619597 18.59490162 C-5.9244509 16.35582215 -5.47200202 14.11688453 -5.01877409 11.87810475 C-4.80519758 10.8146735 -4.59162108 9.75124226 -4.37157255 8.65558583 C-4.07137457 7.19287503 -4.07137457 7.19287503 -3.76511198 5.70061451 C-3.50196951 4.40777294 -3.50196951 4.40777294 -3.23351103 3.08881336 C-2.4930124 0.17860245 -2.4930124 0.17860245 0 0 Z " fill="#FDFDFD" transform="translate(460.7336178421974,105.8758015036583)"/>
<path d="M0 0 C10.17156436 -0.09324485 20.34302474 -0.16403868 30.51493168 -0.20724869 C35.23968311 -0.22800173 39.96413918 -0.2560908 44.6887207 -0.30175781 C49.25993635 -0.34565898 53.83087039 -0.36922909 58.40228081 -0.37950897 C60.13435732 -0.38682182 61.86642084 -0.4010985 63.59837532 -0.42292023 C77.36453028 -0.58925098 91.7390973 0.02532809 103 9 C103.98097656 9.75539062 104.96195312 10.51078125 105.97265625 11.2890625 C112.57556914 16.87155327 115.82648028 24.68640964 116.6875 33.140625 C117.63897621 50.64154803 112.68187626 66.75587682 101 80 C100.44699219 80.6496875 99.89398438 81.299375 99.32421875 81.96875 C89.67210143 92.47320226 75.95186474 98.09997912 62 100 C59.28506945 100.08599342 56.59729076 100.12678584 53.88330078 100.11352539 C52.69692772 100.11374443 52.69692772 100.11374443 51.48658752 100.1139679 C48.88946731 100.11327489 46.29242009 100.10551129 43.6953125 100.09765625 C41.8878483 100.0957899 40.08038359 100.09436702 38.2729187 100.09336853 C33.52842804 100.08956049 28.78396826 100.07974488 24.03948975 100.06866455 C19.19299741 100.05841355 14.34650006 100.05386302 9.5 100.04882812 C-0.00001353 100.03812102 -9.50000419 100.02106525 -19 100 C-18.38161915 93.78807555 -17.46514801 87.74224727 -16.23413086 81.62475586 C-16.05842056 80.7358667 -15.88271027 79.84697754 -15.70167542 78.93115234 C-15.1262926 76.02499666 -14.54561501 73.11992694 -13.96484375 70.21484375 C-13.56237973 68.18752964 -13.16024959 66.16014923 -12.75843811 64.13270569 C-11.70469243 58.8204301 -10.64643848 53.5090625 -9.58721924 48.19787598 C-8.50527326 42.76852977 -7.42762642 37.33833054 -6.34960938 31.90820312 C-4.23726184 21.27129974 -2.12014703 10.63535133 0 0 Z " fill="#000000" transform="translate(230,165)"/>
<path d="M0 0 C5.97734898 -0.07448767 11.95442418 -0.1287615 17.93212891 -0.16479492 C19.9631013 -0.17982599 21.99404154 -0.20025647 24.02490234 -0.22631836 C26.95418259 -0.26295232 29.88303144 -0.27978351 32.8125 -0.29296875 C33.71178223 -0.30845261 34.61106445 -0.32393646 35.53759766 -0.33988953 C43.86751598 -0.34208356 50.30525179 1.82678548 57 7 C62.95700825 13.76200937 62.53351025 19.97709731 62.18359375 28.60253906 C61.27210729 40.50519468 57.63028723 54.36971277 49 63 C38.789893 71.1552427 27.59600649 74.17566583 14.76171875 74.09765625 C13.88095169 74.0962413 13.00018463 74.09482635 12.09272766 74.09336853 C9.29094997 74.08778937 6.48925338 74.07524071 3.6875 74.0625 C1.78320428 74.05748231 -0.12109269 74.05291987 -2.02539062 74.04882812 C-6.68362481 74.03782677 -11.34179867 74.02057649 -16 74 C-14.14364995 63.64714449 -12.02679331 53.38674001 -9.63916016 43.14370728 C-8.75503675 39.35002652 -7.88173649 35.55385351 -7.0078125 31.7578125 C-6.83542053 31.00995987 -6.66302856 30.26210724 -6.4854126 29.49159241 C-4.22897798 19.68161844 -2.11121696 9.84203319 0 0 Z " fill="#F7F7F7" transform="translate(188,493)"/>
<path d="M0 0 C6.54690186 -0.10183351 13.09359771 -0.1716467 19.64111328 -0.21972656 C21.86612582 -0.23978046 24.09108607 -0.26703065 26.31591797 -0.30175781 C29.52324365 -0.35054934 32.72986951 -0.37303162 35.9375 -0.390625 C36.92427734 -0.41127014 37.91105469 -0.43191528 38.92773438 -0.45318604 C46.77575161 -0.45570746 51.94734125 1.34551413 57.875 6.5 C61.70170896 11.00201054 62.52165811 14.44569373 62.3671875 20.28125 C61.27266211 28.3853954 56.63134359 34.21919436 50.47265625 39.30859375 C43.18703154 44.29228332 35.33301448 46.13901903 26.60546875 46.09765625 C25.40341797 46.09443359 24.20136719 46.09121094 22.96289062 46.08789062 C21.71701172 46.07951172 20.47113281 46.07113281 19.1875 46.0625 C17.92228516 46.05798828 16.65707031 46.05347656 15.35351562 46.04882812 C12.2356289 46.03706251 9.11783867 46.02062272 6 46 C5.81062866 47.27278809 5.81062866 47.27278809 5.61743164 48.57128906 C4.69737887 54.66809717 3.73971541 60.72299254 2.4375 66.75 C2.18871094 67.92046875 1.93992187 69.0909375 1.68359375 70.296875 C1 73 1 73 0 74 C-2.53049402 74.07313567 -5.03304837 74.09247527 -7.5625 74.0625 C-8.27341797 74.05798828 -8.98433594 74.05347656 -9.71679688 74.04882812 C-11.47790013 74.03700864 -13.23896036 74.01907263 -15 74 C-14.35576467 64.65391928 -12.33795425 55.68201527 -10.3125 46.5625 C-9.95265887 44.92303518 -9.5932884 43.283467 -9.234375 41.64379883 C-8.33469055 37.54087137 -7.42817406 33.43949393 -6.51861572 29.33874512 C-6.02363409 27.1065801 -5.52987322 24.87414932 -5.03662109 22.64160156 C-3.36806491 15.09208132 -1.68767815 7.54526698 0 0 Z " fill="#F7F7F7" transform="translate(347,493)"/>
<path d="M0 0 C1.5631897 0.00785522 1.5631897 0.00785522 3.15795898 0.01586914 C4.28266602 0.0190918 5.40737305 0.02231445 6.56616211 0.02563477 C7.75016602 0.03401367 8.93416992 0.04239258 10.15405273 0.05102539 C11.34192383 0.05553711 12.52979492 0.06004883 13.75366211 0.06469727 C16.69967499 0.07652864 19.64558954 0.09301252 22.59155273 0.11352539 C31.91841378 57.11676691 31.91841378 57.11676691 32.59155273 74.11352539 C27.31155273 74.11352539 22.03155273 74.11352539 16.59155273 74.11352539 C14.52905273 62.38305664 14.52905273 62.38305664 14.59155273 57.11352539 C-4.31579448 55.05821777 -4.31579448 55.05821777 -21.74243164 59.73120117 C-23.90082683 62.46503567 -25.15289044 65.21697249 -26.4309082 68.43774414 C-27.29330198 70.53417099 -28.02765416 72.31226946 -29.40844727 74.11352539 C-34.48301983 76.1315835 -40.18138366 75.04739283 -45.40844727 74.11352539 C-44.04826824 70.49910339 -42.428828 67.22739546 -40.49438477 63.88696289 C-39.90608887 62.86836182 -39.31779297 61.84976074 -38.71166992 60.80029297 C-38.07535645 59.70740967 -37.43904297 58.61452637 -36.78344727 57.48852539 C-36.1226416 56.34859131 -35.46183594 55.20865723 -34.78100586 54.03417969 C-27.41354517 41.34082407 -19.92237535 28.72057627 -12.40844727 16.11352539 C-11.63670166 14.81632568 -11.63670166 14.81632568 -10.84936523 13.49291992 C-9.55849136 11.32362755 -8.26546446 9.15564505 -6.97094727 6.98852539 C-6.61145996 6.38500244 -6.25197266 5.78147949 -5.8815918 5.15966797 C-2.86890178 0.13522953 -2.86890178 0.13522953 0 0 Z " fill="#F6F6F6" transform="translate(289.408447265625,492.886474609375)"/>
<path d="M0 0 C1.5631897 0.00785522 1.5631897 0.00785522 3.15795898 0.01586914 C4.28266602 0.0190918 5.40737305 0.02231445 6.56616211 0.02563477 C7.75016602 0.03401367 8.93416992 0.04239258 10.15405273 0.05102539 C11.34192383 0.05553711 12.52979492 0.06004883 13.75366211 0.06469727 C16.69967499 0.07652864 19.64558954 0.09301252 22.59155273 0.11352539 C31.91841378 57.11676691 31.91841378 57.11676691 32.59155273 74.11352539 C27.31155273 74.11352539 22.03155273 74.11352539 16.59155273 74.11352539 C14.52905273 62.38305664 14.52905273 62.38305664 14.59155273 57.11352539 C-4.31579448 55.05821777 -4.31579448 55.05821777 -21.74243164 59.73120117 C-23.90082683 62.46503567 -25.15289044 65.21697249 -26.4309082 68.43774414 C-27.29330198 70.53417099 -28.02765416 72.31226946 -29.40844727 74.11352539 C-34.48301983 76.1315835 -40.18138366 75.04739283 -45.40844727 74.11352539 C-44.04826824 70.49910339 -42.428828 67.22739546 -40.49438477 63.88696289 C-39.90608887 62.86836182 -39.31779297 61.84976074 -38.71166992 60.80029297 C-38.07535645 59.70740967 -37.43904297 58.61452637 -36.78344727 57.48852539 C-36.1226416 56.34859131 -35.46183594 55.20865723 -34.78100586 54.03417969 C-27.41354517 41.34082407 -19.92237535 28.72057627 -12.40844727 16.11352539 C-11.63670166 14.81632568 -11.63670166 14.81632568 -10.84936523 13.49291992 C-9.55849136 11.32362755 -8.26546446 9.15564505 -6.97094727 6.98852539 C-6.61145996 6.38500244 -6.25197266 5.78147949 -5.8815918 5.15966797 C-2.86890178 0.13522953 -2.86890178 0.13522953 0 0 Z " fill="#F6F6F6" transform="translate(130.408447265625,492.886474609375)"/>
<path d="M0 0 C19.8 0 39.6 0 60 0 C59.34 3.63 58.68 7.26 58 11 C43.15 11 28.3 11 13 11 C12.67 14.3 12.34 17.6 12 21 C11.01 24.3 10.02 27.6 9 31 C22.2 31 35.4 31 49 31 C48.67 34.63 48.34 38.26 48 42 C34.47 42 20.94 42 7 42 C5.68 48.6 4.36 55.2 3 62 C17.52 62 32.04 62 47 62 C46 70 46 70 45 74 C25.2 74 5.4 74 -15 74 C-13.8757635 61.63339849 -13.8757635 61.63339849 -12.36328125 55.25390625 C-12.20135788 54.55901596 -12.03943451 53.86412567 -11.87260437 53.1481781 C-11.3595212 50.95124743 -10.83669848 48.75680217 -10.3125 46.5625 C-6.65202604 31.08418137 -3.33413564 15.55929965 0 0 Z " fill="#F8F8F8" transform="translate(610,493)"/>
<path d="M0 0 C5.61 0 11.22 0 17 0 C18.00661132 7.06042996 19.00316231 14.12218282 19.99072266 21.18530273 C20.32752942 23.5841225 20.66700408 25.98256935 21.00927734 28.38061523 C21.50292454 31.84262201 21.9867206 35.30589009 22.46875 38.76953125 C22.62186646 39.82831985 22.77498291 40.88710846 22.93273926 41.97798157 C23.85558028 48.69606661 24.18465545 55.22108296 24 62 C26.54894359 59.54706005 28.15659176 57.195976 29.86328125 54.08203125 C30.41371094 53.08631104 30.96414063 52.09059082 31.53125 51.06469727 C32.1190625 49.99147217 32.706875 48.91824707 33.3125 47.8125 C34.5672333 45.54589033 35.82379405 43.28029147 37.08203125 41.015625 C37.4037027 40.43631729 37.72537415 39.85700958 38.05679321 39.26014709 C41.45873924 33.1482561 44.96820657 27.10017361 48.5 21.0625 C49.06243408 20.09997314 49.62486816 19.13744629 50.2043457 18.14575195 C51.27703078 16.31491895 52.35881133 14.48937721 53.45068359 12.66992188 C54.50689433 10.8497642 55.50298 8.9936998 56.44384766 7.11132812 C59.92412122 0.42712441 59.92412122 0.42712441 62.96972656 -0.78198242 C65.19080049 -0.98620438 67.16134451 -0.88519459 69.375 -0.625 C70.11105469 -0.57988281 70.84710937 -0.53476562 71.60546875 -0.48828125 C73.4072023 -0.37128556 75.20469853 -0.19189683 77 0 C75.64694351 3.56904188 74.06310902 6.8542833 72.19921875 10.18359375 C71.36185181 11.68152466 71.36185181 11.68152466 70.50756836 13.2097168 C69.9069458 14.27488525 69.30632324 15.34005371 68.6875 16.4375 C68.06302979 17.54843018 67.43855957 18.65936035 66.79516602 19.80395508 C62.23791626 27.87986834 57.65546091 35.94677961 52.80273438 43.84985352 C49.92902162 48.55405246 47.3900828 53.2252603 45.140625 58.26171875 C39.48215165 70.31215371 39.48215165 70.31215371 35 74 C27.37334513 76.53022467 18.76062582 75.70134034 11 74 C8.85051152 71.85051152 9.12597474 67.3851003 8.73046875 64.41015625 C8.60937241 63.52646362 8.48827606 62.642771 8.36351013 61.7322998 C8.10323399 59.83097899 7.84478364 57.92940753 7.58795166 56.02761841 C6.92253542 51.1005869 6.24489175 46.17524642 5.56640625 41.25 C5.43268616 40.27776993 5.29896606 39.30553986 5.16119385 38.30384827 C3.91967761 29.32393682 2.56037779 20.36616569 1.11791992 11.41625977 C0.96814697 10.47580811 0.81837402 9.53535645 0.6640625 8.56640625 C0.53467285 7.77177979 0.4052832 6.97715332 0.27197266 6.15844727 C0 4 0 4 0 0 Z " fill="#F6F6F6" transform="translate(524,493)"/>
<path d="M0 0 C1.27685165 0.00222061 2.55370331 0.00444122 3.86924744 0.00672913 C4.57165054 0.0065831 5.27405365 0.00643707 5.9977417 0.00628662 C8.32985983 0.00698579 10.66189904 0.01477835 12.9940033 0.02259827 C14.60683142 0.02446243 16.21966012 0.02588634 17.83248901 0.02688599 C22.08550062 0.03071129 26.33847828 0.04054167 30.59147644 0.05158997 C34.92812135 0.06180383 39.26477171 0.06638355 43.60142517 0.07142639 C52.11641474 0.08216393 60.63137667 0.09924049 69.14634705 0.12025452 C68.81634705 3.75025452 68.48634705 7.38025452 68.14634705 11.12025452 C58.24634705 11.12025452 48.34634705 11.12025452 38.14634705 11.12025452 C38.14634705 13.43025452 38.14634705 15.74025452 38.14634705 18.12025452 C37.68739901 20.69467419 37.18103604 23.18544317 36.5721283 25.72181702 C36.4078685 26.43294144 36.2436087 27.14406586 36.07437134 27.8767395 C35.54319294 30.16802424 35.0012213 32.45659679 34.45884705 34.74525452 C34.09167716 36.31908148 33.72514339 37.89305699 33.35923767 39.46717834 C32.29830125 44.0205918 31.22341852 48.57063585 30.14634705 53.12025452 C29.85936951 54.33729065 29.57239197 55.55432678 29.27671814 56.8082428 C27.9144909 62.58247254 26.53949907 68.35340888 25.14634705 74.12025452 C19.86634705 74.12025452 14.58634705 74.12025452 9.14634705 74.12025452 C11.71611231 60.96442082 14.37502851 47.83350786 17.27134705 34.74525452 C17.51256287 33.64850403 17.75377869 32.55175354 18.00230408 31.42176819 C18.35591003 29.83779236 18.35591003 29.83779236 18.71665955 28.22181702 C18.92049255 27.30738831 19.12432556 26.39295959 19.33433533 25.45082092 C20.50516499 20.64851837 21.84576562 15.88905309 23.14634705 11.12025452 C13.90634705 11.12025452 4.66634705 11.12025452 -4.85365295 11.12025452 C-3.75746165 0.15834152 -3.75746165 0.15834152 0 0 Z " fill="#F9F9F9" transform="translate(419.85365295410156,492.87974548339844)"/>
<path d="M0 0 C3.14565046 -0.08845016 6.29097375 -0.14086835 9.4375 -0.1875 C10.31599609 -0.21263672 11.19449219 -0.23777344 12.09960938 -0.26367188 C19.20665566 -0.34234766 25.69621605 0.56294949 31.53125 4.8671875 C35.17745203 10.16193832 33.3057605 17.51257626 32.26953125 23.5078125 C30.46288388 32.89616906 28.78517247 41.13113715 21.0625 47.375 C14.13984508 51.04824547 8.31396338 51.25397616 0.625 51.125 C-0.39722656 51.11597656 -1.41945312 51.10695313 -2.47265625 51.09765625 C-4.98201522 51.0742043 -7.49088336 51.04138355 -10 51 C-9.37922877 44.52052149 -8.33006711 38.28754572 -6.93359375 31.93359375 C-6.73524429 31.01409439 -6.53689484 30.09459503 -6.33253479 29.14723206 C-5.70506098 26.24305849 -5.07139036 23.34027902 -4.4375 20.4375 C-4.0080513 18.45516739 -3.57901091 16.47274627 -3.15039062 14.49023438 C-2.10497598 9.6591207 -1.05400594 4.82924626 0 0 Z " fill="#030303" transform="translate(201,504)"/>
<path d="M0 0 C5.28 0 10.56 0 16 0 C13.11389183 14.80517989 10.05634825 29.56835874 6.875 44.3125 C6.70532715 45.10191986 6.5356543 45.89133972 6.36083984 46.7046814 C4.39387923 55.84641594 2.32786951 64.94155125 0 74 C-5.28 74 -10.56 74 -16 74 C-14.7029026 65.83985675 -13.14821482 57.80440508 -11.3125 49.75 C-10.78321555 47.40118548 -10.25460069 45.05222 -9.7265625 42.703125 C-9.44844727 41.46755859 -9.17033203 40.23199219 -8.88378906 38.95898438 C-7.9343758 34.72109316 -7.00860392 30.47815832 -6.0859375 26.234375 C-5.92725693 25.50506775 -5.76857635 24.7757605 -5.60508728 24.02435303 C-4.97714977 21.13688813 -4.34962287 18.24933849 -3.72476196 15.36120605 C-3.29058502 13.35507585 -2.85443773 11.34938257 -2.41796875 9.34375 C-2.04321411 7.61415039 -2.04321411 7.61415039 -1.66088867 5.84960938 C-1 3 -1 3 0 0 Z " fill="#F6F6F6" transform="translate(499,493)"/>
<path d="M0 0 C4.02044681 -0.14607549 8.04020497 -0.23433213 12.0625 -0.3125 C13.7630957 -0.3753418 13.7630957 -0.3753418 15.49804688 -0.43945312 C24.97825705 -0.57764861 24.97825705 -0.57764861 29.265625 2.30859375 C32 5 32 5 32.6875 8.375 C31.89516442 12.55276941 30.79645107 15.79898367 28 19 C21.07383607 23.53922659 15.1221445 23.49189663 7 23.25 C5.84371094 23.23195313 4.68742187 23.21390625 3.49609375 23.1953125 C0.66318725 23.1484876 -2.16795884 23.08292012 -5 23 C-3.83675515 15.15836122 -2.2452987 7.60407828 0 0 Z " fill="#070707" transform="translate(361,504)"/>
<path d="M0 0 C0.66 0 1.32 0 2 0 C2.67858764 3.97722742 3.34067334 7.95703804 4 11.9375 C4.28617187 13.61295898 4.28617187 13.61295898 4.578125 15.32226562 C4.84882813 16.9706543 4.84882813 16.9706543 5.125 18.65234375 C5.29257812 19.65257568 5.46015625 20.65280762 5.6328125 21.68334961 C6.0847799 25.76578125 6 29.89262583 6 34 C-2.25 34 -10.5 34 -19 34 C-17.33816175 29.84540437 -15.55330794 26.28499904 -13.33984375 22.421875 C-12.9899086 21.80983215 -12.63997345 21.19778931 -12.2794342 20.56719971 C-11.54386137 19.28220202 -10.80672792 17.99809655 -10.06811523 16.71484375 C-8.93422994 14.74431712 -7.80561226 12.77084508 -6.67773438 10.796875 C-1.14763617 1.14763617 -1.14763617 1.14763617 0 0 Z " fill="#050505" transform="translate(296,504)"/>
<path d="M0 0 C0.66 0 1.32 0 2 0 C2.67858764 3.97722742 3.34067334 7.95703804 4 11.9375 C4.28617188 13.61295898 4.28617188 13.61295898 4.578125 15.32226562 C4.84882813 16.9706543 4.84882813 16.9706543 5.125 18.65234375 C5.29257813 19.65257568 5.46015625 20.65280762 5.6328125 21.68334961 C6.0847799 25.76578125 6 29.89262583 6 34 C-2.25 34 -10.5 34 -19 34 C-17.33816175 29.84540437 -15.55330794 26.28499904 -13.33984375 22.421875 C-12.9899086 21.80983215 -12.63997345 21.19778931 -12.2794342 20.56719971 C-11.54386137 19.28220202 -10.80672792 17.99809655 -10.06811523 16.71484375 C-8.93422994 14.74431712 -7.80561226 12.77084508 -6.67773438 10.796875 C-1.14763617 1.14763617 -1.14763617 1.14763617 0 0 Z " fill="#050505" transform="translate(137,504)"/>
</svg>
